<?xml version="1.0" encoding="UTF-8"?><svg id="Layer_1" xmlns="http://www.w3.org/2000/svg" viewBox="0 0 2818.33 485.05"><defs><style>.cls-1{fill:#000;stroke-width:0px;}</style></defs><path class="cls-1" d="M492.32,267.45c12.02,38.13,17.18,75.78,2.87,114.5,3.32.36,6.04.61,8.74.95,16.5,2.07,33.02,4.02,49.48,6.33,3.73.52,9.3,1.03,8.27,6.49-1.08,5.74-6.39,3.06-10.03,2.74-19.07-1.67-38.13-3.53-57.2-5.19-1.25-.11-3.23.49-3.79,1.41-4.36,7.22-8.45,14.61-12.69,22.06,6.99,2.35,14.41,4.27,21.35,7.3,11.42,4.98,22.57,10.62,33.76,16.13,2.66,1.31,5.87,3.17,3.53,6.84-2.1,3.29-5.28,3.32-8.78,1.48-17.59-9.28-36.04-16.41-55.22-21.71-3.81-1.05-6.3-.46-9.3,2.25-27.61,25-60.39,39.85-96.33,48.2-37.91,8.82-76.27,9.77-114.73,4.95-39.58-4.95-76.44-17.73-109.27-40.91-5.56-3.93-10.82-8.32-15.93-12.84-2.28-2.01-4.25-2.53-7.15-1.77-19.59,5.1-38.27,12.55-56.33,21.64-1.56.78-3.64,1.65-5.1,1.21-1.65-.5-3.86-2.32-4-3.75-.17-1.63,1.24-4.33,2.72-5.07,11.44-5.74,22.94-11.41,34.68-16.5,6.96-3.02,14.39-4.94,21.39-7.28-4.21-7.46-8.26-14.89-12.62-22.12-.61-1.01-2.81-1.63-4.2-1.51-19.4,1.66-38.79,3.48-58.19,5.27-.33.03-.65.19-.98.2-3,0-7.1,1.72-8.05-2.55-1.02-4.56,3.11-6.07,6.53-6.55,17.12-2.41,34.28-4.53,51.43-6.69,2.56-.32,5.17-.35,8.74-.57-14.34-39.15-9-77.29,2.46-115.48-11.18-4.01-22.13-7.46-32.69-11.84-16.6-6.88-33.05-14.14-49.32-21.77-4.7-2.21-8.95-5.84-12.7-9.53-5.22-5.16-4.78-11.2.62-16.17,7.98-7.35,18.07-10.92,28.17-13.39,25.35-6.21,50.9-11.64,76.44-17.09,7.9-1.69,7.93-1.27,9.54-9.13,8.99-43.77,20.54-86.85,35.67-128.91,2.52-7.01,5.85-13.84,9.6-20.29C172.38,3.87,185.13-2.46,202.01.86c15.64,3.08,31.03,7.5,46.43,11.67,8.68,2.35,17.25,5.15,25.72,8.16,13.76,4.9,27.24,4.42,41.11.01,20.31-6.45,40.75-12.57,61.39-17.84,8.05-2.05,16.81-2.11,25.2-1.81,11.22.4,19.11,7.06,24.85,16.31,9.5,15.33,14.37,32.56,19.79,49.52,11,34.46,20.17,69.4,27.07,104.93.55,2.85,1.72,4.02,4.73,4.61,23.99,4.72,48.05,9.19,71.83,14.82,10.42,2.47,20.27,7.36,30.31,11.36,2.11.84,3.99,2.41,5.77,3.89,6.34,5.23,7.13,11.77,1.34,17.72-3.89,4-8.51,7.53-13.37,10.29-21.83,12.41-45.5,20.49-69.13,28.62-4.07,1.4-8.14,2.77-12.73,4.33ZM228.77,314.38c-1.07,3.98-1.63,6.93-2.67,9.7-1.11,2.94-2.39,5.89-4.1,8.51-5.5,8.43-14.66,8.72-20.4.4-2.4-3.48-4.45-7.62-5.22-11.73-1.23-6.53-1.27-13.3-1.88-20.83-10.91-4.4-22.87-9.22-35.68-14.38-.78,4.17-1.84,7.51-1.98,10.89-.66,16.26,4.35,30.84,13.96,43.83,16.59,22.44,47.89,25.79,68.67,7.33,5.84-5.19,10.66-11.22,10.14-19.67-.11-1.82-1.36-4.34-2.86-5.18-5.61-3.16-11.53-5.76-17.98-8.89ZM362.53,316.45c-4.98,2.13-9.58,3.96-14.06,6.04-6.19,2.88-7.53,5.91-5.27,12.32.93,2.63,2.22,5.24,3.84,7.51,13.57,18.91,42.53,23.65,61.58,9.62,17.28-12.72,24.9-30.72,25.71-51.75.17-4.41-1.06-8.88-1.69-13.67-13.16,5.46-25.09,10.42-37.15,15.42.26,1.4.44,2.35.62,3.31,1.86,10.26-.62,19.63-6.77,27.78-5.75,7.62-14.61,7.22-20-.68-2.21-3.24-3.51-7.13-5.12-10.76-.65-1.47-1.02-3.06-1.69-5.12ZM295.31,385.5c0-.09,0-.17-.01-.26-5.81.27-11.69.09-17.39,1.03-2.28.38-5.04,2.9-5.9,5.1-.58,1.48,1.29,4.64,2.91,6.13,5.01,4.61,10.39,8.84,15.71,13.12,2.94,2.36,6.33,2.54,9.24.26,5.89-4.62,11.73-9.33,17.18-14.45,3.7-3.47,2.99-6.83-1.58-9.09-2.16-1.07-4.74-1.6-7.17-1.76-4.31-.28-8.66-.08-12.99-.08Z"/><path class="cls-1" d="M1519.13,248.25h-45.28v103.64h-33.76v-103.5h-46.3v103.61h-31.48v-135.92h188.8v135.71h-31.97v-103.53Z"/><path class="cls-1" d="M1753.67,215.76h136.52v31.25h-103.3v20.16h103.26v84.59h-136.56v-30.63h103.89v-20.83h-103.81v-84.54Z"/><path class="cls-1" d="M2084.2,351.73v-135.51h136.28v30.73h-103.66v21.02h103.81v32.03h-103.94v20.49h103.45v31.24h-135.95Z"/><path class="cls-1" d="M2388.43,351.63c-24.06,4.34-41.12-.36-57.88-17.32-8.62-8.72-28.05-6.77-43.7-9.86-.97,11.84-1.59,19.41-2.27,27.73h-30.72v-136.09h136.02v109.98c-7.18.65-13.72,1.23-23.23,2.09,7.69,8.28,14.09,15.17,21.79,23.46ZM2357.71,248.17h-70.9v44.78h70.9v-44.78Z"/><path class="cls-1" d="M982.74,352.15h-30.79c-.61-8.45-1.16-16.05-1.73-24.03h-71.57c-.54,8.41-1.02,15.95-1.54,24.05h-30.57v-135.84h136.21v135.83ZM950.44,248.3h-71.69v44.44h71.69v-44.44Z"/><path class="cls-1" d="M1689.74,351.76c-.59-7.72-1.16-15.27-1.8-23.68h-71.73c-.51,7.81-1.01,15.37-1.57,23.93h-30.39v-135.95h136.06v135.7h-30.58ZM1687.84,293.43v-44.75h-71.24v44.75h71.24Z"/><path class="cls-1" d="M2557.54,215.93h135.8v110.75h-102.8c-.68,8.73-1.27,16.24-1.96,25.05h-31.04v-135.81ZM2590.72,248.24v44.57h70.44v-44.57h-70.44Z"/><path class="cls-1" d="M781.51,266.89v-51.03h31.63v136.29h-31.21v-50.62h-72.95v50.6h-31.89v-136.13h30.85v50.89h73.58Z"/><path class="cls-1" d="M1328.17,351.76c-26.17,5.85-43.74-.74-52.13-25.36-9.71-28.48-31.55-30.18-58.48-24.39v50.26h-32.14v-136.41h31.37v52.09c13.82,0,26.16.5,38.4-.34,3.22-.22,6.91-4.03,9.09-7.1,4.8-6.77,8.91-14.06,13.08-21.26q15.72-27.14,49.58-22.67c-10.72,20.07-21.73,39.32-31.19,59.31-2.52,5.32-2.46,14.02.2,19.24,9.6,18.86,20.81,36.89,32.22,56.63Z"/><path class="cls-1" d="M1016.03,215.69h135.78v31.23h-103.35v73.73h103.18v31.22h-135.61v-136.18Z"/><path class="cls-1" d="M2000.23,352.2h-32.72v-104.36h-52.11v-31.53h135.76v30.12h-50.92v105.77Z"/><path class="cls-1" d="M2818.33,165.26c-4.44,5.11-8.1,9.31-11.52,13.25-50.67-35.07-81-35.13-133.61-.27-3.19-4.11-6.63-8.53-10.14-13.05,20.84-34.71,106.89-54.64,155.27.07Z"/><path class="cls-1" d="M2758.32,352.21h-30.44v-94.29h30.44v94.29Z"/><path class="cls-1" d="M2789.52,194.43c-4.76,4.51-8.83,8.37-12.67,12-34.14-17.8-40.03-17.8-73.69-.04-3.84-3.62-7.89-7.44-11.85-11.18,23.18-31.61,75.78-28.18,98.2-.78Z"/><path class="cls-1" d="M2757.8,246.45h-29.45v-30.07h29.45v30.07Z"/></svg>