<?xml version="1.0" encoding="UTF-8"?>
<svg id="Layer_1" data-name="Layer 1" xmlns="http://www.w3.org/2000/svg" version="1.1" viewBox="0 0 2818.3 485">
  <defs>
    <style>
      .cls-1 {
        fill: #000;
        stroke-width: 0px;
      }
    </style>
  </defs>
  <path class="cls-1" d="M1180.6,248.3h-45.3v103.6h-33.8v-103.5h-46.3v103.6h-31.5v-135.9h188.8v135.7h-32v-103.5h0Z"/>
  <path class="cls-1" d="M1415.1,215.8h136.5v31.2h-103.3v20.2h103.3v84.6h-136.6v-30.6h103.9v-20.8h-103.8v-84.5h0Z"/>
  <path class="cls-1" d="M1745.7,351.7v-135.5h136.3v30.7h-103.7v21h103.8v32h-103.9v20.5h103.4v31.2h-135.9,0Z"/>
  <path class="cls-1" d="M2049.9,351.6c-24.1,4.3-41.1-.4-57.9-17.3-8.6-8.7-28.1-6.8-43.7-9.9-1,11.8-1.6,19.4-2.3,27.7h-30.7v-136.1h136v110c-7.2.6-13.7,1.2-23.2,2.1,7.7,8.3,14.1,15.2,21.8,23.5h0ZM2019.2,248.2h-70.9v44.8h70.9v-44.8h0Z"/>
  <path class="cls-1" d="M644.2,352.2h-30.8c-.6-8.5-1.2-16-1.7-24h-71.6c-.5,8.4-1,16-1.5,24h-30.6v-135.8h136.2v135.8h0ZM611.9,248.3h-71.7v44.4h71.7v-44.4h0Z"/>
  <path class="cls-1" d="M1351.2,351.8c-.6-7.7-1.2-15.3-1.8-23.7h-71.7c-.5,7.8-1,15.4-1.6,23.9h-30.4v-135.9h136.1v135.7h-30.6,0ZM1349.3,293.4v-44.8h-71.2v44.8h71.2Z"/>
  <path class="cls-1" d="M2219,215.9h135.8v110.8h-102.8c-.7,8.7-1.3,16.2-2,25h-31v-135.8h0ZM2252.2,248.2v44.6h70.4v-44.6h-70.4Z"/>
  <path class="cls-1" d="M443,266.9v-51h31.6v136.3h-31.2v-50.6h-73v50.6h-31.9v-136.1h30.8v50.9h73.6,0Z"/>
  <path class="cls-1" d="M989.6,351.8c-26.2,5.9-43.7-.7-52.1-25.4-9.7-28.5-31.6-30.2-58.5-24.4v50.3h-32.1v-136.4h31.4v52.1c13.8,0,26.2.5,38.4-.3,3.2-.2,6.9-4,9.1-7.1,4.8-6.8,8.9-14.1,13.1-21.3,10.5-18.1,27-25.6,49.6-22.7-10.7,20.1-21.7,39.3-31.2,59.3-2.5,5.3-2.5,14,.2,19.2,9.6,18.9,20.8,36.9,32.2,56.6h0Z"/>
  <path class="cls-1" d="M677.5,215.7h135.8v31.2h-103.3v73.7h103.2v31.2h-135.6v-136.2h0Z"/>
  <path class="cls-1" d="M1661.7,352.2h-32.7v-104.4h-52.1v-31.5h135.8v30.1h-50.9v105.8h0Z"/>
  <path class="cls-1" d="M2479.8,165.3c-4.4,5.1-8.1,9.3-11.5,13.2-50.7-35.1-81-35.1-133.6-.3-3.2-4.1-6.6-8.5-10.1-13.1,20.8-34.7,106.9-54.6,155.3,0Z"/>
  <path class="cls-1" d="M2419.8,352.2h-30.4v-94.3h30.4v94.3Z"/>
  <path class="cls-1" d="M2451,194.4c-4.8,4.5-8.8,8.4-12.7,12-34.1-17.8-40-17.8-73.7,0-3.8-3.6-7.9-7.4-11.9-11.2,23.2-31.6,75.8-28.2,98.2-.8h0Z"/>
  <path class="cls-1" d="M2419.3,246.5h-29.4v-30.1h29.4v30.1h0Z"/>
</svg>