<?xml version="1.0" encoding="UTF-8"?><svg id="Layer_1" xmlns="http://www.w3.org/2000/svg" viewBox="0 0 685.19 571.42"><defs><style>.cls-1{fill:#000;stroke-width:0px;}</style></defs><path class="cls-1" d="M539.18,267.45c12.02,38.13,17.18,75.78,2.87,114.5,3.32.36,6.04.61,8.74.95,16.5,2.07,33.02,4.02,49.48,6.33,3.73.52,9.3,1.03,8.27,6.49-1.08,5.74-6.39,3.06-10.03,2.74-19.07-1.67-38.13-3.53-57.2-5.19-1.25-.11-3.23.49-3.79,1.41-4.36,7.22-8.45,14.61-12.69,22.06,6.99,2.35,14.41,4.27,21.35,7.3,11.42,4.98,22.57,10.62,33.76,16.13,2.66,1.31,5.87,3.17,3.53,6.84-2.1,3.29-5.28,3.32-8.78,1.48-17.59-9.28-36.04-16.41-55.22-21.71-3.81-1.05-6.3-.46-9.3,2.25-27.61,25-60.39,39.85-96.33,48.2-37.91,8.82-76.27,9.77-114.73,4.95-39.58-4.95-76.44-17.73-109.27-40.91-5.56-3.93-10.82-8.32-15.93-12.84-2.28-2.01-4.25-2.53-7.15-1.77-19.59,5.1-38.27,12.55-56.33,21.64-1.56.78-3.64,1.65-5.1,1.21-1.65-.5-3.86-2.32-4-3.75-.17-1.63,1.24-4.33,2.72-5.07,11.44-5.74,22.94-11.41,34.68-16.5,6.96-3.02,14.39-4.94,21.39-7.28-4.21-7.46-8.26-14.89-12.62-22.12-.61-1.01-2.81-1.63-4.2-1.51-19.4,1.66-38.79,3.48-58.19,5.27-.33.03-.65.19-.98.2-3,0-7.1,1.72-8.05-2.55-1.02-4.56,3.11-6.07,6.53-6.55,17.12-2.41,34.28-4.53,51.43-6.69,2.56-.32,5.17-.35,8.74-.57-14.34-39.15-9-77.29,2.46-115.48-11.18-4.01-22.13-7.46-32.69-11.84-16.6-6.88-33.05-14.14-49.32-21.77-4.7-2.21-8.95-5.84-12.7-9.53-5.22-5.16-4.78-11.2.62-16.17,7.98-7.35,18.07-10.92,28.17-13.39,25.35-6.21,50.9-11.64,76.44-17.09,7.9-1.69,7.93-1.27,9.54-9.13,8.99-43.77,20.54-86.85,35.67-128.91,2.52-7.01,5.85-13.84,9.6-20.29C219.25,3.87,232-2.46,248.88.86c15.64,3.08,31.03,7.5,46.43,11.67,8.68,2.35,17.25,5.15,25.72,8.16,13.76,4.9,27.24,4.42,41.11.01,20.31-6.45,40.75-12.57,61.39-17.84,8.05-2.05,16.81-2.11,25.2-1.81,11.22.4,19.11,7.06,24.85,16.31,9.5,15.33,14.37,32.56,19.79,49.52,11,34.46,20.17,69.4,27.07,104.93.55,2.85,1.72,4.02,4.73,4.61,23.99,4.72,48.05,9.19,71.83,14.82,10.42,2.47,20.27,7.36,30.31,11.36,2.11.84,3.99,2.41,5.77,3.89,6.34,5.23,7.13,11.77,1.34,17.72-3.89,4-8.51,7.53-13.37,10.29-21.83,12.41-45.5,20.49-69.13,28.62-4.07,1.4-8.14,2.77-12.73,4.33ZM275.63,314.38c-1.07,3.98-1.63,6.93-2.67,9.7-1.11,2.94-2.39,5.89-4.1,8.51-5.5,8.43-14.66,8.72-20.4.4-2.4-3.48-4.45-7.62-5.22-11.73-1.23-6.53-1.27-13.3-1.88-20.83-10.91-4.4-22.87-9.22-35.68-14.38-.78,4.17-1.84,7.51-1.98,10.89-.66,16.26,4.35,30.84,13.96,43.83,16.59,22.44,47.89,25.79,68.67,7.33,5.84-5.19,10.66-11.22,10.14-19.67-.11-1.82-1.36-4.34-2.86-5.18-5.61-3.16-11.53-5.76-17.98-8.89ZM409.4,316.45c-4.98,2.13-9.58,3.96-14.06,6.04-6.19,2.88-7.53,5.91-5.27,12.32.93,2.63,2.22,5.24,3.84,7.51,13.57,18.91,42.53,23.65,61.58,9.62,17.28-12.72,24.9-30.72,25.71-51.75.17-4.41-1.06-8.88-1.69-13.67-13.16,5.46-25.09,10.42-37.15,15.42.26,1.4.44,2.35.62,3.31,1.86,10.26-.62,19.63-6.77,27.78-5.75,7.62-14.61,7.22-20-.68-2.21-3.24-3.51-7.13-5.12-10.76-.65-1.47-1.02-3.06-1.69-5.12ZM342.18,385.5c0-.09,0-.17-.01-.26-5.81.27-11.69.09-17.39,1.03-2.28.38-5.04,2.9-5.9,5.1-.58,1.48,1.29,4.64,2.91,6.13,5.01,4.61,10.39,8.84,15.71,13.12,2.94,2.36,6.33,2.54,9.24.26,5.89-4.62,11.73-9.33,17.18-14.45,3.7-3.47,2.99-6.83-1.58-9.09-2.16-1.07-4.74-1.6-7.17-1.76-4.31-.28-8.66-.08-12.99-.08Z"/><path class="cls-1" d="M269.45,537.66h-14.49v33.16h-10.8v-33.12h-14.81v33.15h-10.07v-43.49h60.41v43.43h-10.23v-33.13Z"/><path class="cls-1" d="M344.5,527.27h43.69v10h-33.06v6.45h33.04v27.07h-43.7v-9.8h33.24v-6.66h-33.22v-27.05Z"/><path class="cls-1" d="M450.27,570.77v-43.36h43.61v9.83h-33.17v6.73h33.22v10.25h-33.26v6.56h33.1v10h-43.5Z"/><path class="cls-1" d="M547.62,570.74c-7.7,1.39-13.16-.11-18.52-5.54-2.76-2.79-8.98-2.17-13.98-3.16-.31,3.79-.51,6.21-.73,8.88h-9.83v-43.55h43.53v35.19c-2.3.21-4.39.39-7.43.67,2.46,2.65,4.51,4.86,6.97,7.51ZM537.79,537.64h-22.69v14.33h22.69v-14.33Z"/><path class="cls-1" d="M97.81,570.91h-9.85c-.2-2.7-.37-5.14-.55-7.69h-22.9c-.17,2.69-.33,5.1-.49,7.7h-9.78v-43.47h43.59v43.46ZM87.47,537.68h-22.94v14.22h22.94v-14.22Z"/><path class="cls-1" d="M324.05,570.78c-.19-2.47-.37-4.89-.58-7.58h-22.95c-.16,2.5-.32,4.92-.5,7.66h-9.72v-43.5h43.54v43.42h-9.78ZM323.44,552.12v-14.32h-22.8v14.32h22.8Z"/><path class="cls-1" d="M601.74,527.32h43.45v35.44h-32.89c-.22,2.79-.41,5.2-.63,8.02h-9.93v-43.46ZM612.36,537.66v14.26h22.54v-14.26h-22.54Z"/><path class="cls-1" d="M33.42,543.63v-16.33h10.12v43.61h-9.99v-16.2H10.2v16.19H0v-43.56h9.87v16.28h23.54Z"/><path class="cls-1" d="M208.35,570.79c-8.37,1.87-14-.24-16.68-8.12-3.11-9.11-10.09-9.66-18.71-7.8v16.08h-10.28v-43.65h10.04v16.67c4.42,0,8.37.16,12.29-.11,1.03-.07,2.21-1.29,2.91-2.27,1.54-2.17,2.85-4.5,4.18-6.8q5.03-8.69,15.87-7.25c-3.43,6.42-6.95,12.58-9.98,18.98-.81,1.7-.79,4.48.06,6.16,3.07,6.03,6.66,11.8,10.31,18.12Z"/><path class="cls-1" d="M108.46,527.24h43.45v9.99h-33.07v23.59h33.02v9.99h-43.4v-43.58Z"/><path class="cls-1" d="M423.4,570.92h-10.47v-33.4h-16.68v-10.09h43.44v9.64h-16.29v33.85Z"/><path class="cls-1" d="M685.19,511.1c-1.42,1.63-2.59,2.98-3.69,4.24-16.21-11.22-25.92-11.24-42.76-.09-1.02-1.31-2.12-2.73-3.24-4.18,6.67-11.11,34.2-17.49,49.69.02Z"/><path class="cls-1" d="M665.99,570.93h-9.74v-30.17h9.74v30.17Z"/><path class="cls-1" d="M675.97,520.44c-1.52,1.44-2.83,2.68-4.05,3.84-10.92-5.69-12.81-5.7-23.58-.01-1.23-1.16-2.52-2.38-3.79-3.58,7.42-10.12,24.25-9.02,31.42-.25Z"/><path class="cls-1" d="M665.82,537.09h-9.42v-9.62h9.42v9.62Z"/></svg>